HIERARCHY
ROOT Hips
{
	OFFSET 0.000000 0.000000 0.000000
	CHANNELS 6 Xposition Yposition Zposition Xrotation Yrotation Zrotation
	JOINT LeftUpLeg_virtual
	{
		OFFSET 0.000000 0.000000 0.000000
		CHANNELS 3 Xrotation Yrotation Zrotation
		JOINT LeftUpLeg
		{
			OFFSET 13.026900 -6.336304 -1.092800
			CHANNELS 3 Xrotation Yrotation Zrotation
			JOINT LeftLeg
			{
				OFFSET 0.524474 -46.096886 9.782700
				CHANNELS 3 Xrotation Yrotation Zrotation
				JOINT LeftFoot
				{
					OFFSET -0.524474 -53.427422 -12.948200
					CHANNELS 3 Xrotation Yrotation Zrotation
					JOINT LeftToeBase
					{
						OFFSET 0.192200 -14.009700 16.364100
						CHANNELS 3 Xrotation Yrotation Zrotation
						JOINT LeftToe_End
						{
							OFFSET -1.784700 -0.561700 9.474800
							CHANNELS 3 Xrotation Yrotation Zrotation
							End Site
							{
								OFFSET 0 0 0
							}
						}
					}
				}
			}
		}
	}
	JOINT RightUpLeg_virtual
	{
		OFFSET 0.000000 0.000000 0.000000
		CHANNELS 3 Xrotation Yrotation Zrotation
		JOINT RightUpLeg
		{
			OFFSET -12.883000 -6.336304 -1.092800
			CHANNELS 3 Xrotation Yrotation Zrotation
			JOINT RightLeg
			{
				OFFSET -0.524587 -46.096825 9.782800
				CHANNELS 3 Xrotation Yrotation Zrotation
				JOINT RightFoot
				{
					OFFSET 0.524587 -53.427383 -12.948300
					CHANNELS 3 Xrotation Yrotation Zrotation
					JOINT RightToeBase
					{
						OFFSET -0.192200 -14.009700 16.364100
						CHANNELS 3 Xrotation Yrotation Zrotation
						JOINT RightToe_End
						{
							OFFSET 1.784700 -0.561700 9.474800
							CHANNELS 3 Xrotation Yrotation Zrotation
							End Site
							{
								OFFSET 0 0 0
							}
						}
					}
				}
			}
		}
	}
	JOINT Spine_virtual
	{
		OFFSET 0.000000 0.000000 0.000000
		CHANNELS 3 Xrotation Yrotation Zrotation
		JOINT Spine
		{
			OFFSET 0.072000 7.257294 -0.789700
			CHANNELS 3 Xrotation Yrotation Zrotation
			JOINT Spine1
			{
				OFFSET 0.000000 12.508769 -0.658067
				CHANNELS 3 Xrotation Yrotation Zrotation
				JOINT Spine1_split
				{
					OFFSET 0.000000 12.508769 -0.658067
					CHANNELS 3 Xrotation Yrotation Zrotation
					JOINT Spine2
					{
						OFFSET 0.000000 12.508769 -0.658067
						CHANNELS 3 Xrotation Yrotation Zrotation
						JOINT Neck_virtual
						{
							OFFSET 0.000000 0.000000 0.000000
							CHANNELS 3 Xrotation Yrotation Zrotation
							JOINT Neck
							{
								OFFSET 0.000000 14.033295 7.520400
								CHANNELS 3 Xrotation Yrotation Zrotation
								JOINT Head
								{
									OFFSET 0.000000 8.198502 5.703100
									CHANNELS 3 Xrotation Yrotation Zrotation
									JOINT HeadTop_End
									{
										OFFSET 0.000000 17.760803 13.332701
										CHANNELS 3 Xrotation Yrotation Zrotation
										End Site
										{
											OFFSET 0 0 0
										}
									}
								}
							}
						}
						JOINT LeftShoulder_virtual
						{
							OFFSET 0.000000 0.000000 0.000000
							CHANNELS 3 Xrotation Yrotation Zrotation
							JOINT LeftShoulder
							{
								OFFSET 6.292450 5.785301 -0.669000
								CHANNELS 3 Xrotation Yrotation Zrotation
								JOINT LeftShoulder_split
								{
									OFFSET 6.292450 5.785301 -0.669000
									CHANNELS 3 Xrotation Yrotation Zrotation
									JOINT LeftArm
									{
										OFFSET 13.907140 -6.093903 1.965100
										CHANNELS 3 Xrotation Yrotation Zrotation
										JOINT LeftForeArm
										{
											OFFSET 34.140198 0.000000 0.000000
											CHANNELS 3 Xrotation Yrotation Zrotation
											JOINT LeftHand
											{
												OFFSET 40.960209 0.000000 0.000000
												CHANNELS 3 Xrotation Yrotation Zrotation
												End Site
												{
													OFFSET 0 0 0
												}
											}
										}
									}
								}
							}
						}
						JOINT RightShoulder_virtual
						{
							OFFSET 0.000000 0.000000 0.000000
							CHANNELS 3 Xrotation Yrotation Zrotation
							JOINT RightShoulder
							{
								OFFSET -6.292450 5.785301 -0.669000
								CHANNELS 3 Xrotation Yrotation Zrotation
								JOINT RightShoulder_split
								{
									OFFSET -6.292450 5.785301 -0.669000
									CHANNELS 3 Xrotation Yrotation Zrotation
									JOINT RightArm
									{
										OFFSET -13.907140 -6.093903 1.965100
										CHANNELS 3 Xrotation Yrotation Zrotation
										JOINT RightForeArm
										{
											OFFSET -34.140198 0.000000 0.000000
											CHANNELS 3 Xrotation Yrotation Zrotation
											JOINT RightHand
											{
												OFFSET -40.960209 0.000000 0.000000
												CHANNELS 3 Xrotation Yrotation Zrotation
												End Site
												{
													OFFSET 0 0 0
												}
											}
										}
									}
								}
							}
						}
					}
				}
			}
		}
	}
}
MOTION
Frames: 6
Frame Time: 0.03333333
0.483699 158.450027 12.206898 0.000000 0.000000 0.000000 10.433924 -7.453471 9.614033 -100.599459 -5.549951 16.189239 65.846398 -1.786844 -7.933125 16.312196 -14.011856 4.220407 -0.599199 -1.107449 0.567977 0.000000 0.000000 0.000000 9.267343 1.825848 8.635677 -90.518373 5.034907 -1.770147 114.619372 -2.486766 -5.043734 28.814481 11.200637 12.049453 11.568357 -0.215021 -0.764283 0.000000 0.000000 0.000000 3.309927 -3.169260 12.154172 29.343394 -8.576473 -11.805265 0.749639 -3.571709 -2.120794 2.998745 -0.740234 0.659187 0.000000 0.000000 0.000000 3.642232 -1.876167 -1.331936 -22.630068 4.708789 6.192912 18.423042 3.916364 -18.833798 0.000000 0.000000 0.000000 2.786825 -2.152948 -1.119744 13.011379 -39.906780 33.035969 -4.187002 -0.435273 0.919431 -66.781621 14.976204 18.061189 -50.696181 -70.268754 -34.050149 0.000000 0.000000 0.000000 3.065497 -2.315421 -0.884340 1.239733 9.503247 -16.572993 4.690074 2.457502 -2.994199 -86.515438 -11.061393 -15.906570 -61.837309 67.126949 58.031965 0.000000 0.000000 0.000000 
-1.008660 157.923462 18.293243 0.000000 0.000000 0.000000 8.323355 -7.876492 9.736081 -99.416149 -5.317660 16.869249 63.256602 -1.596835 -8.105275 17.016650 -12.537129 5.725240 -1.062535 -0.864760 0.276496 0.000000 0.000000 0.000000 8.060400 -1.355680 9.319108 -88.656941 3.875238 -3.794176 112.245491 -2.627176 -4.111834 28.566752 9.813066 13.121401 9.829863 -0.253206 -0.831598 0.000000 0.000000 0.000000 1.924340 -3.388178 11.363854 29.029066 -8.416744 -11.467240 0.391484 -3.345651 -2.422997 2.095867 -2.153451 0.777445 0.000000 0.000000 0.000000 3.601848 -1.756104 -1.665693 -22.639477 3.768489 7.334836 17.905293 4.652196 -19.486106 0.000000 0.000000 0.000000 2.519726 -1.997037 -1.503717 10.935266 -38.779362 30.176005 -3.472502 -1.778463 1.622896 -64.886647 13.917109 16.701296 -58.794289 -71.564536 -42.237497 0.000000 0.000000 0.000000 2.925406 -2.125399 -1.285847 0.763352 9.505808 -16.769433 5.568121 1.536686 -0.945479 -85.378457 -11.242827 -13.458986 -62.612187 66.786969 58.925804 0.000000 0.000000 0.000000 
-2.387856 157.328186 27.077433 0.000000 0.000000 0.000000 6.068917 -10.449868 10.302532 -94.064928 -5.724128 16.715479 55.807587 -0.447608 -8.214972 19.897471 -9.575997 6.219022 -1.435909 -0.491962 -0.146611 0.000000 0.000000 0.000000 6.046051 -7.149594 10.396378 -82.426825 1.895828 -6.316433 104.252545 -2.793275 -3.431929 27.971949 6.800503 13.530437 10.497674 -0.199373 -0.296027 0.000000 0.000000 0.000000 0.054246 -5.376547 10.709302 27.253932 -7.706630 -10.428488 0.534401 -3.026559 -3.368525 1.159003 -3.533921 1.376667 0.000000 0.000000 0.000000 4.183697 -1.686072 -2.636278 -22.165999 2.897275 9.713622 18.363413 5.917470 -19.997368 0.000000 0.000000 0.000000 2.948621 -1.877515 -2.526677 7.472884 -35.900738 25.106404 -2.674696 -2.759464 1.710093 -60.730777 10.620043 14.149887 -64.418472 -72.354106 -47.772874 0.000000 0.000000 0.000000 3.241488 -2.061751 -2.363475 0.406087 11.510069 -15.884744 5.529664 0.915204 0.424675 -82.689125 -12.388863 -11.363399 -66.628352 66.667509 62.913631 0.000000 0.000000 0.000000 
-3.293108 156.600159 37.215973 0.000000 0.000000 0.000000 3.477620 -14.500942 10.768610 -85.253656 -6.899674 16.203664 44.534302 1.329081 -7.985005 24.607732 -5.780765 5.243543 -1.083278 -0.018132 -0.822202 0.000000 0.000000 0.000000 3.680341 -13.692604 11.200628 -72.027213 -0.967043 -8.611348 90.651124 -3.037088 -2.867324 27.729306 2.925372 13.029353 12.277361 -0.065939 0.479821 0.000000 0.000000 0.000000 -2.435360 -9.220692 10.079076 24.387631 -6.580467 -8.630455 1.276475 -2.641117 -4.730711 1.238850 -4.486983 1.846278 0.000000 0.000000 0.000000 5.065988 -1.665837 -3.972843 -21.125145 2.208179 12.629164 19.441497 7.464741 -20.371287 0.000000 0.000000 0.000000 3.958904 -1.769348 -4.007846 3.526137 -31.555037 18.760919 -1.456438 -2.847270 1.736629 -55.468233 5.423287 10.960133 -64.567247 -72.348956 -47.614492 0.000000 0.000000 0.000000 3.971063 -2.048470 -3.905675 0.127392 15.056807 -14.276599 5.056757 0.933705 1.277916 -79.453255 -14.775847 -10.524317 -73.409316 66.592248 69.552131 0.000000 0.000000 0.000000 
-3.824377 155.136124 48.528004 0.000000 0.000000 0.000000 0.676104 -20.087416 10.923301 -74.294584 -8.853400 15.595533 31.754796 3.147848 -7.016881 30.154684 -2.312738 2.935241 -0.163929 0.464167 -1.624286 0.000000 0.000000 0.000000 1.214185 -19.859246 11.387220 -59.305132 -4.667130 -10.464030 72.960668 -2.888691 -2.639197 28.197792 0.023175 12.677564 12.345889 0.117360 0.893771 0.000000 0.000000 0.000000 -4.772651 -14.441059 9.257883 20.951226 -5.214460 -6.083549 2.474302 -2.118272 -6.222771 1.354067 -4.519836 1.892152 0.000000 0.000000 0.000000 6.104467 -1.518930 -5.404832 -19.747950 1.934576 15.198402 20.540249 9.204990 -20.680665 0.000000 0.000000 0.000000 5.195803 -1.526785 -5.641529 -0.023492 -26.491170 12.332825 -0.528105 -2.281565 2.244264 -50.619690 -0.397790 8.110874 -60.550283 -71.461209 -42.998643 0.000000 0.000000 0.000000 4.985279 -1.900450 -5.623778 -0.178830 19.407892 -12.356003 4.726317 1.810231 2.136289 -76.856478 -18.229488 -11.234608 -81.222683 66.264446 77.210350 0.000000 0.000000 0.000000 
-4.042518 152.139236 60.241852 0.000000 0.000000 0.000000 -2.242849 -26.812251 10.498390 -62.613656 -11.471418 15.328391 20.000886 3.985538 -5.229352 35.554348 -0.444622 -0.216844 0.185228 0.833461 -2.133550 0.000000 0.000000 0.000000 -1.209980 -25.733118 10.983108 -46.796706 -8.532792 -11.616421 54.789858 -2.172868 -2.507629 28.804728 -0.884698 13.084874 9.190401 0.238597 0.566042 0.000000 0.000000 0.000000 -6.666903 -21.087447 8.299534 17.626029 -3.764035 -3.188111 3.890878 -1.250769 -7.597778 1.217537 -3.906247 1.966353 0.000000 0.000000 0.000000 7.195340 -1.064495 -6.680249 -18.255113 2.240987 16.771579 21.013068 10.984300 -21.034869 0.000000 0.000000 0.000000 6.330047 -0.948471 -7.146344 -2.763859 -21.392882 6.577126 -0.295154 -1.218136 2.971517 -47.497159 -5.215776 5.823547 -57.818016 -70.567759 -39.508662 0.000000 0.000000 0.000000 6.014923 -1.428018 -7.229037 -0.610292 23.743522 -10.466687 4.711389 3.118735 3.115376 -76.239002 -21.784639 -13.488779 -87.235832 65.618809 83.108458 0.000000 0.000000 0.000000 
